<?xml version="1.0" encoding="UTF-8"?>
<svg id="Layer_2" data-name="Layer 2" xmlns="http://www.w3.org/2000/svg" viewBox="0 0 445.76 556.53">
  <defs>
    <style>
      .cls-1 {
        fill: #003912;
        stroke-width: 0px;
      }
    </style>
  </defs>
  <g id="Layer_1-2" data-name="Layer 1">
    <path class="cls-1" d="m319.58,415.64c0-45.8-.03-91.6.08-137.4,0-3-.89-3.52-3.64-3.51-37.82.09-75.64.11-113.45-.03-3.18-.01-3.67.91-3.67,3.82.08,91.39.05,182.78.14,274.17,0,3.06-.74,3.81-3.79,3.8-39.93-.11-79.86-.11-119.79,0-2.88,0-3.44-.8-3.43-3.52.07-91.49.04-182.99.14-274.48,0-3.08-.76-3.78-3.79-3.76-21.65.14-43.31.04-64.97.13-2.46.01-3.41-.33-3.4-3.16.12-32.71.11-65.43.01-98.14,0-2.55.71-3.1,3.16-3.09,21.55.1,43.1.07,64.65.04,4.92,0,4.23.68,4.26-4.1.06-10.87-.14-21.74.15-32.61,1.54-57.57,34.72-103.34,88.99-122.99C180.44,3.85,200.34.34,220.72.16,252.83-.13,284.95.09,317.06,0c2.16,0,2.55.67,2.54,2.65-.06,32.93-.07,65.85.02,98.78,0,2.51-.81,2.89-3.04,2.88-23.13-.08-46.27-.05-69.4-.05-9.51,0-18.72,1.41-27.24,5.89-12.85,6.75-19.7,17.63-20.73,31.87-.64,8.82-.17,17.72-.27,26.58-.02,1.52.45,2.12,1.97,1.94.73-.09,1.48-.01,2.22-.01,79.54,0,159.09.03,238.63-.09,3.45,0,4,1.03,4,4.17-.08,126-.08,252.01.01,378.01,0,3.23-.8,3.92-3.96,3.91-39.61-.12-79.23-.11-118.84,0-2.81,0-3.46-.7-3.46-3.47.09-45.8.07-91.6.07-137.4Z"/>
  </g>
</svg>