<?xml version="1.0" encoding="UTF-8"?>
<svg id="Layer_2" data-name="Layer 2" xmlns="http://www.w3.org/2000/svg" viewBox="0 0 467.95 466.48">
  <defs>
    <style>
      .cls-1 {
        fill: #fefefe;
      }

      .cls-1, .cls-2 {
        stroke-width: 0px;
      }

      .cls-2 {
        fill: #007bb5;
      }
    </style>
  </defs>
  <g id="Layer_1-2" data-name="Layer 1">
    <g>
      <path class="cls-2" d="m0,438.69V27.45c.93-4.06,1.16-8.25,3.73-11.89C7.95,9.6,12.99,4.72,19.72,1.76c2.95-1.3,6.21-1.07,9.29-1.76h408.71c5.27.57,10.33,1.67,14.7,4.99,8.56,6.52,14.19,14.67,15.12,25.7.28,3.28.42,6.54.42,9.81,0,129.04,0,258.07,0,387.11,0,6.87-.53,13.66-3.75,19.9-4.11,7.95-10.21,13.82-18.56,17.23-3.84,1.57-7.93,1.62-11.96,1.62-87.79.04-175.58.03-263.38.03-45.84,0-91.68-.13-137.51.08-13.78.06-23.16-6.45-30.07-17.62-1.93-3.11-1.82-6.77-2.71-10.17Z"/>
      <path class="cls-1" d="m248.65,205.47c2.78-4.93,5.76-9.23,9.37-13.06,11.89-12.59,26.56-19.97,43.58-22.27,17.23-2.34,34.3-1.05,50.7,5.15,19.45,7.36,31.31,21.87,37.78,41.22,4.55,13.62,6.23,27.71,6.96,41.96.2,3.96.34,7.93.34,11.9.02,41.35,0,82.7.08,124.05,0,2.44-.71,2.91-2.99,2.9-21.15-.09-42.3-.1-63.46.01-2.48.01-2.91-.76-2.9-3.02.07-37.81.09-75.62.02-113.43-.02-9.06-.66-18.09-3.22-26.88-5.29-18.17-17.94-24.37-34.67-23.87-5.01.15-9.96.88-14.71,2.64-12.14,4.5-18.41,13.92-21.64,25.85-2.11,7.79-2.88,15.78-2.9,23.82-.11,37.29-.16,74.58-.15,111.86,0,2.22-.37,3.03-2.87,3.02-21.24-.12-42.48-.09-63.71-.02-1.99,0-2.58-.45-2.57-2.52.06-72.51.06-145.02,0-217.53,0-2.2.65-2.67,2.75-2.66,20.29.08,40.58.08,60.87,0,2.18,0,2.94.38,2.89,2.78-.17,8.37-.08,16.75-.05,25.12,0,.81-.24,1.68.51,3Z"/>
      <path class="cls-1" d="m68.98,285.89c0-36.07.03-72.15-.06-108.22,0-2.53.65-3.11,3.13-3.1,21.23.1,42.47.09,63.7,0,2.18,0,2.69.61,2.69,2.73-.05,72.49-.06,144.99,0,217.48,0,2.08-.6,2.52-2.58,2.52-21.41-.07-42.81-.08-64.22,0-2.12,0-2.72-.49-2.72-2.67.07-36.25.05-72.49.05-108.74Z"/>
      <path class="cls-1" d="m63.63,104.12c0-22.23,17.87-40.02,40.16-39.98,22.18.03,40.16,18.02,40.13,40.14-.03,22.35-18.08,40.16-40.68,40.14-21.9-.02-39.62-18.04-39.61-40.3Z"/>
    </g>
  </g>
</svg>