<?xml version="1.0" encoding="UTF-8"?>
<svg id="Layer_2" data-name="Layer 2" xmlns="http://www.w3.org/2000/svg" viewBox="0 0 355.52 331.91">
  <defs>
    <style>
      .cls-1 {
        stroke: #fff;
        stroke-miterlimit: 10;
        stroke-width: 3px;
      }
    </style>
  </defs>
  <g id="Layer_1-2" data-name="Layer 1">
    <path class="cls-1" d="m1.8,330.09c.3-.23.64-.43.89-.7,23.26-25.11,46.51-50.22,69.76-75.33,21.69-23.42,43.37-46.85,65.06-70.27.29-.31.56-.63.9-1.01C93.26,122.41,48.14,62.09,2.89,1.59c.59-.03.99-.06,1.4-.07,5.54,0,11.08,0,16.63,0,28.18,0,56.36,0,84.54,0,.31,0,.63.03.94,0,.74-.1,1.21.2,1.65.81,3.08,4.18,6.2,8.32,9.31,12.48,25.94,34.68,51.88,69.36,77.83,104.04.35.46.7.92,1.09,1.44.6-.64,1.14-1.2,1.66-1.77,27.7-29.93,55.41-59.85,83.11-89.78,8.11-8.76,16.23-17.52,24.32-26.3.61-.66,1.21-.94,2.11-.94,9.37.03,18.73.02,28.1.02.37,0,.75.03,1.38.06-42.4,45.8-84.64,91.43-126.92,137.09.43.59.82,1.13,1.21,1.66,18.72,25.03,37.44,50.05,56.16,75.08,28.35,37.9,56.7,75.8,85.04,113.7.27.36.42.8.62,1.2h-104.44c-.22-.36-.41-.75-.66-1.08-15.09-20.18-30.18-40.36-45.28-60.54-16.45-21.99-32.9-43.98-49.35-65.97-.36-.49-.74-.97-1.22-1.62-.34.42-.57.74-.83,1.02-16.67,18.01-33.34,36.02-50.01,54.02-22.48,24.28-44.95,48.55-67.42,72.83-.4.43-.76.89-1.14,1.33-10.03,0-20.06,0-30.09-.02-.24,0-.69.37-.82-.21ZM48.03,24.09c.45.61.72.98.99,1.35,18.95,25.34,37.9,50.68,56.86,76.01,31.71,42.4,63.43,84.79,95.14,127.19,13.72,18.34,27.43,36.68,41.15,55.02,5.75,7.69,11.5,15.37,17.24,23.06.39.52.75.88,1.5.88,15.42-.03,30.83-.02,46.25-.02.21,0,.42-.06.76-.12-.36-.49-.62-.87-.9-1.24-16.45-22-32.9-43.99-49.36-65.99-29.45-39.37-58.89-78.73-88.34-118.1-24.21-32.37-48.43-64.73-72.62-97.11-.53-.71-1.06-.96-1.94-.96-15.1.03-30.21.02-45.31.02-.38,0-.76,0-1.43,0Z"/>
  </g>
</svg>