<?xml version="1.0" encoding="UTF-8"?>
<svg id="Layer_2" data-name="Layer 2" xmlns="http://www.w3.org/2000/svg" viewBox="0 0 24.22 45.03">
  <defs>
    <style>
      .cls-1 {
        fill: #f15a24;
        stroke-width: 0px;
      }
    </style>
  </defs>
  <g id="Layer_1-2" data-name="Layer 1">
    <g>
      <path class="cls-1" d="m5.57,8.69C8.93,6.76,10.92,3.9,11.61.11c0,.05.02.1.02.16,0,2.82,0,5.63-.03,8.45,0,.23-.2.49-.38.67-.44.46-.56.95-.31,1.5.22.49.69.76,1.27.71.52-.04.9-.3,1.09-.79.19-.49.13-.98-.27-1.31-.36-.3-.48-.64-.48-1.09,0-2.8,0-5.6.02-8.42.65,3.82,2.62,6.72,6.02,8.68-.34.69-.67,1.37-1,2.05-.78,1.56-1.56,3.12-2.33,4.69-.1.21-.21.3-.45.3-1.8-.01-3.61,0-5.41-.02-.14,0-.34-.1-.4-.22-1.13-2.24-2.24-4.49-3.39-6.79Z"/>
      <path class="cls-1" d="m6.09,45.03H0c.1-.58.2-1.14.31-1.7,1.15-5.99,2.29-11.98,3.43-17.97.05-.29.14-.42.46-.41.62.03,1.24,0,1.89,0v20.07Z"/>
      <path class="cls-1" d="m18.14,24.98h2.25c1.27,6.66,2.55,13.33,3.83,20.04h-6.08v-20.04Z"/>
      <path class="cls-1" d="m8.5,24.99h7.2v11.19h-7.2v-11.19Z"/>
      <path class="cls-1" d="m8.49,45.02v-6.99h7.2v6.99h-7.2Z"/>
      <path class="cls-1" d="m18.6,10.64c.66,1.05,1.27,2.04,1.08,3.3-.03.21-.15.46-.31.59-1.18.92-1.67,2.13-1.6,3.6,0,.08,0,.17-.02.28H6.47c-.07-.54-.11-1.07-.2-1.59-.16-.87-.61-1.59-1.31-2.13-.44-.34-.59-.76-.54-1.29.1-1.01.54-1.87,1.13-2.73.1.17.17.3.24.44.85,1.7,1.7,3.4,2.53,5.12.14.29.3.38.62.38,2.08-.02,4.16-.02,6.23,0,.32,0,.48-.09.62-.38.84-1.72,1.71-3.43,2.57-5.15.06-.13.13-.25.23-.43Z"/>
      <path class="cls-1" d="m4.11,23.48c.12-.63.21-1.21.35-1.79.02-.1.19-.19.3-.26.05-.03.14,0,.21,0,4.76,0,9.52,0,14.28,0,.35,0,.51.07.56.45.06.53.19,1.05.3,1.61H4.11Z"/>
    </g>
  </g>
</svg>